<svg xmlns="http://www.w3.org/2000/svg" version="1.1" xmlns:xlink="http://www.w3.org/1999/xlink" xmlns:svgjs="http://svgjs.dev/svgjs" width="1000" height="1000"><style>
    #light-icon {
      display: inline;
    }
    #dark-icon {
      display: none;
    }

    @media (prefers-color-scheme: dark) {
      #light-icon {
        display: none;
      }
      #dark-icon {
        display: inline;
      }
    }
  </style><g id="light-icon"><svg xmlns="http://www.w3.org/2000/svg" version="1.1" xmlns:xlink="http://www.w3.org/1999/xlink" xmlns:svgjs="http://svgjs.dev/svgjs" width="1000" height="1000"><g clip-path="url(#SvgjsClipPath1060)"><rect width="1000" height="1000" fill="#ffffff"></rect><g transform="matrix(0.9765625,0,0,0.9765625,0,0)"><svg xmlns="http://www.w3.org/2000/svg" version="1.1" xmlns:xlink="http://www.w3.org/1999/xlink" xmlns:svgjs="http://svgjs.dev/svgjs" width="1024.000000pt" height="1024.000000pt"><svg version="1.0" xmlns="http://www.w3.org/2000/svg" width="1024.000000pt" height="1024.000000pt" preserveAspectRatio="xMidYMid meet">
<g transform="translate(0.000000,1024.000000) scale(0.100000,-0.100000)" fill="#000000" stroke="none">
<path d="M3840 8816 c0 -8 32 -73 70 -144 39 -71 70 -132 70 -136 0 -4 -19 8
-41 28 -37 32 -93 55 -105 43 -5 -4 86 -115 167 -205 l48 -53 -21 -52 c-68
-169 -108 -382 -108 -576 l0 -137 -35 -54 c-19 -30 -35 -59 -35 -65 0 -5 15
-17 33 -25 50 -23 54 -57 22 -185 -14 -60 -35 -169 -45 -244 l-18 -136 -90
-176 c-94 -184 -130 -280 -156 -418 -15 -79 -22 -261 -10 -261 3 0 27 23 53
52 l48 52 6 -228 c4 -182 3 -236 -9 -268 -38 -110 -48 -215 -49 -537 l0 -313
-54 58 c-120 132 -159 190 -240 355 -44 91 -109 206 -145 257 -35 50 -83 122
-105 159 -21 37 -65 104 -95 148 -101 144 -99 138 -107 400 -7 235 -10 249
-63 428 -34 115 -30 131 91 415 52 123 93 225 91 225 -25 14 -104 34 -111 30
-21 -13 -199 -398 -218 -470 -23 -92 -24 -181 -3 -231 8 -20 26 -79 40 -131
21 -81 24 -115 24 -268 0 -248 19 -331 106 -465 246 -376 301 -464 334 -533
139 -291 136 -285 256 -425 64 -74 132 -159 152 -188 l35 -52 -6 -98 c-6 -96
-29 -224 -46 -251 -7 -10 -23 -12 -68 -6 -59 7 -61 7 -101 65 -23 32 -66 85
-97 118 -59 64 -63 72 -40 72 8 0 33 16 55 36 36 33 67 93 86 169 l6 25 -80 0
c-48 0 -94 -6 -115 -15 -35 -14 -87 -76 -87 -102 0 -20 -11 -16 -63 23 -36 26
-47 40 -42 52 48 119 -29 258 -166 300 -35 11 -82 22 -103 26 l-39 7 6 -53
c15 -119 45 -175 122 -225 27 -18 54 -35 60 -37 5 -2 7 -6 4 -10 -3 -3 -23 1
-45 10 -50 21 -138 13 -209 -20 -54 -25 -175 -129 -163 -141 14 -14 234 -85
264 -85 78 0 185 55 204 106 5 13 13 24 18 24 13 0 115 -64 119 -75 2 -6 -23
-10 -61 -10 -93 0 -136 -32 -193 -145 l-44 -85 82 -3 c131 -5 213 35 260 123
13 25 26 45 29 45 8 0 125 -141 138 -166 11 -20 9 -22 -21 -28 -60 -11 -152
-64 -212 -121 -76 -73 -112 -89 -201 -88 -64 0 -81 5 -175 49 -94 43 -111 48
-174 48 -85 0 -126 -13 -229 -73 l-79 -46 -123 -5 c-133 -7 -154 -15 -154 -60
0 -34 18 -41 148 -65 117 -22 170 -17 262 26 89 40 161 45 225 14 22 -10 76
-54 119 -98 44 -43 87 -82 95 -87 22 -11 116 7 164 31 21 11 63 36 93 55 158
101 322 125 573 83 276 -46 470 -4 601 131 30 31 66 75 80 98 14 23 28 42 31
42 16 1 49 -82 49 -124 0 -67 -19 -104 -85 -164 -65 -60 -137 -99 -240 -132
-106 -34 -303 -39 -454 -11 -249 46 -353 25 -581 -116 -88 -54 -119 -63 -219
-63 -114 0 -213 -16 -261 -40 -22 -11 -58 -45 -81 -75 -63 -84 -91 -97 -223
-105 -97 -6 -120 -11 -165 -35 -95 -52 -128 -117 -76 -151 23 -15 28 -14 92
14 59 27 83 31 173 35 134 5 190 28 275 116 33 33 75 66 93 72 38 13 202 3
202 -12 0 -9 -37 -110 -67 -181 -10 -24 -44 -59 -105 -108 -105 -84 -139 -100
-210 -100 -79 0 -168 -17 -189 -36 -24 -21 -24 -56 -1 -77 28 -25 244 -35 309
-13 64 21 188 107 269 186 60 59 86 96 187 261 80 131 164 188 309 211 65 10
96 9 200 -6 67 -10 124 -18 124 -19 5 -5 -139 -228 -170 -264 -25 -27 -73 -60
-149 -99 -87 -46 -129 -75 -187 -132 -58 -56 -96 -83 -166 -117 -95 -46 -150
-93 -205 -177 -30 -45 -38 -95 -17 -116 26 -26 60 -13 112 42 29 29 70 63 93
74 l41 21 7 -95 c14 -182 -3 -224 -133 -323 -44 -33 -93 -77 -109 -98 -70 -88
-103 -202 -68 -236 39 -40 83 -11 133 88 25 50 58 83 148 150 141 105 174 178
174 386 0 97 4 150 14 173 28 66 156 169 313 251 40 20 88 52 107 71 l36 35 0
-81 c0 -108 -15 -140 -108 -230 -104 -100 -124 -143 -130 -276 -4 -92 -1 -115
33 -250 21 -82 42 -155 48 -162 17 -22 65 -14 83 13 14 21 16 40 10 103 -3 42
-13 104 -21 137 -21 90 -19 190 5 241 12 23 51 69 90 103 95 85 125 148 144
303 23 180 44 240 107 307 48 50 102 71 186 71 39 0 75 -4 78 -10 11 -18 -24
-65 -98 -133 -88 -78 -98 -102 -101 -224 -1 -73 2 -86 18 -99 46 -33 82 -2
103 90 15 67 18 72 103 155 96 95 138 166 149 252 l6 51 68 28 67 29 1 -27 c0
-15 4 -65 8 -112 5 -47 6 -100 3 -119 -6 -41 -93 -137 -173 -191 -73 -51 -84
-75 -49 -110 27 -27 66 -25 129 7 64 31 173 131 206 187 30 53 38 84 75 306
33 198 58 307 72 316 13 8 45 -33 76 -96 25 -50 27 -65 26 -165 -1 -124 -12
-191 -55 -319 -37 -109 -68 -172 -125 -252 -58 -83 -95 -110 -269 -199 -179
-92 -222 -121 -302 -201 -72 -74 -104 -124 -134 -218 -19 -61 -21 -84 -17
-197 6 -144 1 -165 -72 -266 -27 -38 -40 -67 -40 -89 0 -38 22 -64 53 -64 30
0 126 105 168 183 l34 62 -2 130 c-3 155 9 206 67 288 36 50 114 117 137 117
15 0 57 -124 56 -165 0 -22 -17 -83 -38 -135 -20 -52 -39 -118 -42 -147 -7
-62 11 -135 39 -160 18 -16 22 -16 46 -2 23 13 28 24 38 94 17 113 19 118 54
100 89 -46 135 -127 149 -260 5 -47 14 -92 21 -100 18 -21 54 -19 76 6 16 18
19 37 19 128 -1 161 -15 194 -132 309 l-95 92 7 59 c5 45 2 79 -14 140 -12 44
-21 87 -21 94 0 9 36 27 92 47 50 18 120 47 155 65 l64 32 14 -34 c46 -110 44
-125 -34 -221 -59 -73 -66 -109 -26 -140 14 -12 34 -18 45 -15 30 8 160 150
181 199 17 38 19 59 14 171 -6 115 -4 136 17 212 l24 84 55 -74 c76 -103 85
-119 109 -188 22 -67 27 -172 9 -234 -5 -21 -38 -83 -71 -137 -59 -96 -61
-103 -65 -178 -4 -64 0 -90 21 -151 28 -81 32 -133 14 -192 -16 -54 0 -89 41
-89 22 0 37 9 55 33 62 81 71 160 31 272 -35 98 -33 134 10 187 19 24 49 66
67 95 18 29 35 53 38 53 3 0 18 -24 34 -53 31 -56 68 -106 128 -176 56 -65 57
-92 12 -219 -64 -178 -54 -304 39 -456 24 -38 54 -78 69 -89 32 -24 65 -16 78
19 10 26 0 62 -56 194 -41 96 -38 167 11 295 63 166 59 221 -26 351 -85 130
-88 137 -119 317 -33 192 -64 261 -207 469 -107 157 -140 222 -153 305 -12 68
2 234 26 314 l16 53 29 -75 c16 -41 45 -125 65 -187 64 -203 159 -360 314
-519 79 -81 174 -158 215 -173 18 -7 33 -7 46 0 33 18 23 64 -35 163 -65 109
-94 205 -103 337 -6 108 7 213 38 295 25 67 33 64 77 -32 25 -54 34 -95 46
-199 18 -150 34 -202 116 -374 82 -173 94 -224 86 -380 -3 -69 -10 -172 -16
-230 -7 -72 -6 -123 1 -163 5 -32 9 -107 7 -167 -3 -95 -1 -110 16 -129 45
-49 88 -4 113 115 15 71 15 92 4 176 -14 100 -10 138 15 138 26 0 112 -95 125
-138 22 -76 67 -102 104 -62 14 16 17 31 13 78 -8 86 -44 146 -138 235 l-82
77 8 67 c5 38 8 95 6 129 l-2 61 77 -27 c148 -51 223 -101 223 -149 0 -14 -5
-61 -12 -103 -13 -87 -8 -113 43 -230 33 -76 36 -122 12 -199 -24 -76 -24
-242 0 -287 14 -25 24 -32 47 -32 44 0 57 30 63 140 3 55 14 122 26 158 29 88
27 171 -5 247 -51 120 -52 127 -42 190 5 33 11 61 13 63 5 5 39 -14 101 -54
104 -69 144 -162 144 -336 0 -130 8 -152 91 -257 74 -92 100 -109 135 -86 36
23 32 69 -13 141 -73 119 -73 119 -73 244 0 186 -36 285 -139 383 -31 29 -90
73 -131 97 -41 24 -111 72 -155 105 -44 34 -127 89 -184 121 -57 32 -125 80
-150 106 -103 101 -176 303 -197 542 l-7 78 79 -63 c164 -133 183 -166 199
-336 8 -82 36 -147 77 -176 26 -19 28 -19 53 -3 l26 17 -7 108 -7 108 76 -21
76 -21 22 -70 c11 -38 28 -83 36 -98 23 -46 84 -107 126 -129 37 -18 51 -20
177 -13 l137 7 36 -31 c44 -39 64 -91 77 -200 19 -165 79 -231 241 -272 113
-28 134 -43 210 -152 44 -64 72 -80 107 -64 38 17 38 50 -2 133 -62 132 -116
178 -254 220 -57 18 -96 36 -119 58 -33 30 -36 37 -45 126 -12 110 -37 183
-82 243 -66 86 -144 113 -288 99 -144 -13 -177 7 -185 111 l-5 64 178 8 c311
15 316 14 417 -33 167 -78 186 -106 187 -267 0 -92 3 -104 29 -150 42 -74 106
-135 141 -135 64 0 68 51 11 147 -39 66 -41 73 -41 150 0 45 4 84 8 87 15 9
96 -35 143 -79 105 -98 180 -21 91 92 -58 73 -96 98 -221 148 -36 14 -97 49
-135 79 -81 62 -186 116 -272 142 -47 15 -98 18 -254 19 l-195 1 -170 53 c-93
29 -203 68 -242 86 -159 73 -321 214 -370 323 -31 67 -32 143 -3 209 l20 46
68 -113 c82 -138 179 -234 298 -296 163 -86 294 -113 448 -95 175 20 283 11
366 -33 25 -13 83 -43 130 -67 l85 -44 133 2 c158 3 167 0 242 -87 58 -67 90
-82 120 -55 28 25 25 58 -11 126 -39 72 -113 144 -165 158 -22 6 -95 11 -165
11 -121 0 -127 1 -171 29 -40 26 -138 132 -138 150 0 15 46 50 90 70 64 29
102 26 194 -16 79 -37 83 -38 196 -37 137 1 279 25 297 51 17 22 16 27 -6 54
-18 23 -26 24 -183 29 l-165 5 -63 39 c-103 64 -138 77 -214 83 -56 4 -90 1
-156 -17 -116 -32 -199 -36 -278 -15 -35 10 -66 23 -68 30 -7 18 80 161 97
157 137 -33 187 -18 331 97 66 53 65 56 -31 92 -74 27 -167 28 -221 1 l-41
-20 7 22 c30 94 27 91 85 97 65 7 103 26 145 71 37 39 99 147 90 156 -4 3 -44
6 -89 6 -84 0 -112 -8 -154 -47 l-23 -20 0 40 c0 31 7 47 30 71 73 77 78 163
13 258 -22 32 -49 67 -60 76 -19 18 -20 16 -56 -72 -42 -102 -46 -147 -17
-220 32 -81 27 -93 -19 -50 -40 38 -74 50 -145 50 -71 0 -73 -8 -32 -94 43
-90 92 -130 158 -131 l40 0 -6 -49 c-6 -56 -14 -68 -27 -43 -18 32 -65 47
-145 47 l-76 0 7 -27 c23 -94 69 -157 138 -191 l37 -18 -80 -122 c-47 -73 -89
-126 -102 -131 -13 -5 -61 -14 -108 -20 -137 -20 -234 12 -331 109 -62 61 -83
110 -94 218 l-7 64 63 -47 c35 -25 92 -60 127 -76 63 -31 166 -58 177 -47 4 3
-14 41 -39 85 -127 220 -159 507 -86 787 17 66 32 121 34 123 1 2 6 -58 10
-132 3 -74 9 -149 13 -166 6 -30 7 -30 25 27 48 154 78 267 94 352 l17 94 98
-98 c55 -54 99 -96 99 -93 0 4 -21 53 -46 110 -43 98 -84 209 -84 230 0 21 32
5 131 -62 148 -102 278 -207 402 -328 59 -58 107 -100 107 -94 0 13 -75 116
-139 192 -72 85 -236 226 -351 303 -58 38 -105 72 -104 76 2 39 19 82 31 82 8
0 89 -38 181 -84 160 -82 346 -192 500 -297 39 -28 72 -46 72 -41 0 14 -126
130 -211 194 -121 91 -243 164 -395 238 l-142 68 5 49 c3 26 7 50 10 53 12 13
598 -207 735 -276 116 -59 28 16 -118 100 -117 68 -309 151 -469 204 -77 25
-143 50 -146 54 -3 5 -6 28 -8 53 l-2 45 41 0 c46 0 291 -27 360 -40 25 -5 47
-7 48 -5 8 8 -196 66 -300 86 -62 11 -122 22 -134 24 -20 4 -31 44 -72 255 -3
20 13 8 82 -60 48 -47 85 -78 82 -70 -3 8 -18 71 -35 140 -16 69 -59 217 -95
329 -36 111 -66 204 -66 206 0 2 16 7 35 11 19 3 35 8 35 10 0 2 -17 30 -39
62 -48 70 -86 147 -95 188 -5 24 2 52 28 115 46 112 91 266 117 402 18 92 21
136 17 247 -3 79 -12 162 -22 201 l-18 66 79 114 c44 63 90 131 102 152 22 35
22 37 4 37 -11 0 -47 -25 -81 -56 -34 -31 -62 -54 -62 -52 0 4 50 134 90 236
18 45 30 85 27 89 -18 18 -111 -105 -164 -218 -32 -67 -44 -75 -36 -25 6 40
-4 89 -16 81 -12 -7 -53 -116 -82 -219 l-23 -78 -113 -54 c-190 -89 -366 -198
-592 -367 -68 -50 -110 -76 -120 -72 -42 17 -176 45 -264 56 -108 13 -444 7
-512 -9 -110 -27 -99 -30 -189 62 -232 238 -449 390 -694 487 l-95 37 -22 59
c-28 78 -62 145 -92 179 l-24 29 5 -84 4 -85 -28 52 c-63 115 -200 265 -200
218z m560 -653 c263 -139 549 -416 707 -685 19 -32 37 -58 40 -58 15 0 -6 150
-30 209 l-26 63 25 -6 c68 -18 136 -52 209 -105 44 -33 81 -55 83 -50 6 15
-51 111 -97 161 l-44 49 64 -6 c160 -15 256 -57 369 -162 102 -95 162 -189
298 -473 10 -21 11 -9 7 69 -13 212 -105 373 -290 508 -66 48 -66 49 37 29
229 -45 473 -175 683 -366 81 -73 338 -341 332 -346 -1 -1 -31 3 -67 8 -210
31 -365 -32 -405 -164 -28 -97 -13 -178 57 -307 50 -91 103 -166 95 -133 -8
36 7 26 72 -45 59 -64 151 -223 151 -262 0 -14 -15 -16 -119 -16 -108 0 -144
-6 -129 -20 4 -4 241 -55 256 -55 6 0 -3 -99 -11 -106 -3 -3 -29 2 -58 10 -71
21 -184 32 -193 18 -4 -6 15 -17 46 -28 72 -23 178 -71 178 -80 0 -25 -36 -44
-82 -44 -30 0 -47 -4 -43 -10 3 -5 14 -10 24 -10 10 0 24 -6 30 -14 9 -11 4
-17 -25 -31 -51 -24 -162 -17 -224 15 -99 51 -140 103 -140 180 0 48 16 88 72
187 36 63 47 75 85 89 58 22 93 68 93 121 0 62 -51 96 -174 115 -89 14 -211 0
-284 -32 -51 -23 -112 -76 -112 -98 0 -29 45 -75 96 -98 30 -13 63 -38 79 -58
31 -41 75 -158 75 -201 0 -45 -34 -109 -73 -139 -73 -56 -240 -105 -363 -106
-58 0 -161 27 -148 40 5 4 36 20 69 35 l60 26 -78 -5 c-91 -5 -164 -35 -293
-121 -271 -181 -416 -413 -418 -672 0 -51 -2 -93 -3 -93 -6 0 -96 145 -122
197 -67 135 -95 242 -108 420 l-7 98 -24 -75 c-20 -62 -25 -96 -25 -190 0 -63
5 -137 12 -164 6 -27 10 -50 8 -52 -6 -6 -76 94 -111 158 -19 35 -49 108 -67
163 -31 94 -33 108 -33 245 0 132 3 152 28 225 15 44 38 97 52 118 14 22 23
41 21 43 -3 3 -36 -26 -74 -63 -72 -70 -148 -177 -185 -261 -28 -63 -33 -42
-14 65 33 192 96 318 212 421 105 94 281 161 428 163 71 1 71 1 38 15 -62 27
-173 38 -259 26 -170 -24 -310 -94 -455 -230 -45 -42 -48 -43 -48 -21 1 38 36
188 65 275 33 100 113 246 172 313 76 87 28 57 -81 -51 -175 -174 -260 -331
-376 -693 -21 -66 -48 -140 -59 -165 l-21 -45 4 190 c3 172 7 201 34 308 58
225 178 427 340 577 80 75 274 210 300 210 9 0 13 3 10 6 -9 8 -122 -23 -169
-46 -22 -12 -43 -20 -45 -17 -9 8 150 132 225 174 89 51 162 80 246 97 55 11
60 15 57 37 -9 92 -81 233 -137 269 l-38 25 33 5 32 5 -45 33 c-25 18 -65 41
-89 52 l-43 20 63 -5 c34 -2 76 -12 93 -21 17 -8 33 -13 36 -10 10 10 -120
136 -187 181 -36 25 -97 56 -135 69 l-70 24 45 11 c25 7 50 13 55 15 15 4 -84
65 -124 76 -44 12 -55 3 -80 -65 -18 -48 -54 -245 -46 -253 2 -2 10 9 18 25
19 36 94 107 82 78 -55 -138 -76 -249 -60 -312 6 -27 7 -27 31 21 27 53 54 95
54 83 0 -4 -9 -35 -20 -68 -23 -66 -29 -233 -12 -321 l9 -47 -46 -33 c-25 -18
-69 -52 -98 -75 l-52 -42 13 37 c26 72 27 115 6 237 -30 172 -37 395 -16 509
35 181 83 296 136 323 33 16 59 9 160 -44z m2383 -70 c17 -19 57 -115 57 -137
0 -7 -46 -49 -102 -93 -57 -45 -119 -97 -138 -118 l-35 -36 45 25 c44 25 186
63 196 53 3 -3 -7 -12 -23 -20 -39 -21 -108 -77 -133 -110 l-22 -27 24 9 c29
11 125 25 117 17 -3 -3 -27 -17 -54 -31 -26 -15 -85 -53 -131 -86 -81 -59 -82
-61 -72 -90 6 -17 7 -33 4 -36 -9 -10 -95 76 -115 115 l-17 33 -14 -25 c-7
-14 -18 -26 -23 -26 -10 0 -77 39 -77 45 0 2 14 31 32 65 39 76 142 184 228
239 36 22 60 41 54 41 -6 0 -49 -15 -97 -34 -102 -40 -203 -105 -272 -175 -43
-45 -75 -64 -75 -45 0 18 122 152 189 208 118 98 289 204 391 242 46 17 44 17
63 -3z m-81 -1281 l51 -49 -24 -43 c-21 -38 -71 -86 -150 -141 -23 -16 -23
-16 11 -13 l35 4 -30 -15 c-82 -39 -195 17 -195 96 0 27 3 29 41 29 81 0 161
60 181 136 7 24 16 44 21 44 5 0 31 -22 59 -48z m-2677 -1221 c10 -47 28 -116
41 -154 24 -70 107 -231 124 -242 6 -4 10 10 10 32 1 41 24 170 32 178 3 3 11
-14 18 -37 28 -97 109 -233 206 -348 102 -121 269 -248 399 -303 74 -31 172
-57 215 -57 27 0 31 3 24 18 -4 9 -19 49 -32 87 -50 138 -28 310 58 456 63
106 65 105 62 -31 -3 -95 1 -136 17 -202 21 -84 104 -268 121 -268 5 0 7 6 4
14 -12 30 37 216 56 216 4 0 10 -17 13 -37 8 -59 44 -145 89 -214 l40 -63 18
56 c24 77 59 134 116 188 41 39 46 42 40 20 -4 -14 -15 -86 -26 -160 -27 -194
-67 -325 -141 -473 l-29 -58 77 59 c43 33 95 77 117 97 l38 38 -7 -63 c-19
-163 -94 -395 -180 -555 -70 -131 -135 -231 -135 -209 0 39 -40 179 -69 239
-15 33 -68 116 -117 185 -49 69 -108 163 -131 210 -35 68 -43 79 -43 55 1 -85
24 -182 86 -365 8 -22 -79 75 -134 150 -26 35 -86 141 -135 235 l-87 170 6
-60 c4 -33 13 -84 20 -115 l12 -55 -53 59 c-30 32 -73 90 -96 128 -44 72 -108
228 -109 263 0 11 -4 26 -9 34 -6 9 -11 -16 -16 -70 -9 -110 7 -219 50 -334
19 -49 33 -91 31 -92 -9 -9 -193 197 -237 264 -116 177 -176 338 -227 603 l-8
45 -9 -79 c-4 -44 -5 -126 -2 -183 2 -57 3 -103 2 -103 -10 0 -101 159 -127
222 -58 136 -79 231 -85 379 -6 149 9 252 51 337 l21 44 7 -33 c3 -19 14 -72
23 -118z m2224 47 c80 -30 122 -73 128 -130 10 -90 -43 -190 -126 -236 l-41
-24 25 38 c32 48 34 77 2 42 -58 -62 -216 -117 -297 -103 -101 17 -110 23 -64
44 48 21 19 21 -85 0 -56 -11 -107 -19 -113 -17 -6 2 14 15 45 27 31 13 57 27
57 31 0 4 -26 10 -58 12 -80 8 -195 58 -270 118 -34 28 -62 55 -62 60 0 6 15
10 33 10 77 0 312 50 441 94 75 26 155 51 178 56 57 12 140 3 207 -22z m-2314
-1234 c76 -159 79 -166 64 -192 -21 -39 -87 -71 -159 -79 l-63 -6 7 39 c9 52
32 207 46 317 7 48 15 87 19 87 3 -1 42 -75 86 -166z"></path>
<path d="M5381 7321 c20 -17 74 -81 120 -143 l84 -112 3 49 c5 73 -5 111 -39
150 -30 33 -96 65 -169 80 l-35 7 36 -31z"></path>
<path d="M6315 7307 c-44 -42 -49 -57 -46 -117 2 -27 41 -120 50 -120 14 0 41
120 41 179 0 34 5 71 10 82 18 33 -6 22 -55 -24z"></path>
<path d="M5197 7019 c-79 -11 -178 -43 -262 -84 -161 -78 -379 -235 -466 -337
-66 -77 -67 -82 -7 -50 68 38 185 78 268 91 144 24 273 9 445 -49 49 -17 93
-30 98 -30 6 0 -16 17 -49 38 -32 21 -87 59 -122 84 -70 53 -104 66 -194 77
l-63 8 85 40 c89 43 202 73 207 56 12 -36 68 -105 105 -130 55 -38 99 -53 157
-53 25 0 64 -5 86 -11 42 -12 114 -75 99 -88 -5 -4 -37 -13 -71 -19 -34 -7
-90 -23 -123 -35 l-61 -23 86 -12 c98 -13 160 -38 221 -87 l42 -35 5 33 c23
134 30 228 19 283 -37 180 -167 309 -339 334 -77 11 -86 11 -166 -1z"></path>
<path d="M5290 6204 c-95 -15 -159 -30 -253 -61 -59 -20 -106 -38 -103 -40 3
-3 38 2 78 11 84 18 231 36 301 36 l48 0 -16 -30 c-8 -16 -15 -38 -15 -50 0
-11 -6 -22 -12 -24 -283 -78 -595 -226 -728 -346 l-45 -41 110 55 c334 165
658 270 982 321 158 25 160 25 137 39 -27 15 -253 14 -337 -3 -37 -7 -70 -12
-72 -9 -8 8 17 93 36 120 l20 28 -53 -1 c-29 -1 -64 -3 -78 -5z"></path>
<path d="M5340 5895 c0 -44 0 -45 -52 -67 -169 -73 -315 -167 -439 -285 -90
-86 -112 -120 -42 -66 58 45 240 157 356 218 160 85 466 194 594 212 24 3 40
9 38 14 -18 28 -196 12 -337 -29 l-66 -20 -7 26 c-6 25 -21 42 -37 42 -5 0 -8
-20 -8 -45z"></path>
<path d="M2543 8388 c-6 -7 -23 -65 -39 -128 -23 -91 -29 -137 -29 -220 0 -99
2 -109 34 -175 53 -109 167 -205 274 -231 25 -6 29 -2 46 37 40 90 64 208 59
291 -4 64 -11 91 -42 154 -70 141 -267 318 -303 272z"></path>
<path d="M3304 7987 c-108 -44 -172 -87 -239 -159 -117 -126 -155 -268 -124
-458 5 -35 12 -66 15 -69 8 -9 170 42 228 71 123 62 217 194 238 335 14 94 -1
307 -22 310 -8 2 -52 -12 -96 -30z"></path>
<path d="M2236 7554 c-3 -55 -9 -134 -12 -176 -17 -210 86 -395 268 -482 40
-19 89 -37 109 -41 l36 -7 30 69 c46 105 56 153 51 251 -6 124 -50 216 -151
316 -79 79 -208 153 -283 163 l-41 5 -7 -98z"></path>
<path d="M3314 7065 c-268 -59 -414 -220 -414 -455 0 -45 5 -101 11 -126 l12
-45 51 6 c78 10 193 52 253 91 129 86 201 222 218 409 3 39 8 85 11 103 l5 32
-43 -1 c-24 -1 -70 -7 -104 -14z"></path>
<path d="M2138 6550 c-88 -11 -268 -71 -279 -92 -8 -15 0 -29 44 -76 30 -31
73 -84 97 -117 78 -107 157 -178 250 -223 125 -61 227 -73 403 -45 l37 6 0 61
c0 87 -24 187 -61 256 -87 163 -288 257 -491 230z"></path>
<path d="M3254 6284 c-161 -97 -247 -246 -231 -403 8 -69 28 -123 80 -212 l39
-65 36 31 c88 73 145 139 175 203 43 91 49 223 18 355 -12 49 -21 97 -21 108
0 29 -28 24 -96 -17z"></path>
<path d="M2300 5652 c-126 -35 -292 -115 -298 -143 -2 -14 164 -172 271 -257
62 -49 170 -99 255 -118 103 -23 253 -15 400 21 132 32 127 17 51 171 -76 155
-175 252 -319 314 -76 33 -263 39 -360 12z"></path>
<path d="M2275 3601 c-49 -22 -105 -83 -105 -114 0 -52 59 -63 108 -22 17 14
49 32 73 40 55 20 69 32 69 61 0 51 -72 68 -145 35z"></path>
</g>
</svg></svg></g></g><defs><clipPath id="SvgjsClipPath1060"><rect width="1000" height="1000" x="0" y="0" rx="250" ry="250"></rect></clipPath></defs></svg></g><g id="dark-icon"><svg xmlns="http://www.w3.org/2000/svg" version="1.1" xmlns:xlink="http://www.w3.org/1999/xlink" xmlns:svgjs="http://svgjs.dev/svgjs" width="1000" height="1000"><g clip-path="url(#SvgjsClipPath1061)"><rect width="1000" height="1000" fill="#000000"></rect><g transform="matrix(0.9765625,0,0,0.9765625,0,0)"><svg xmlns="http://www.w3.org/2000/svg" version="1.1" xmlns:xlink="http://www.w3.org/1999/xlink" xmlns:svgjs="http://svgjs.dev/svgjs" width="1024.000000pt" height="1024.000000pt"><svg version="1.0" xmlns="http://www.w3.org/2000/svg" width="1024.000000pt" height="1024.000000pt" viewBox="0 0 1024.000000 1024.000000" preserveAspectRatio="xMidYMid meet">
<metadata>
Created by potrace 1.16, written by Peter Selinger 2001-2019
</metadata>
<g transform="translate(0.000000,1024.000000) scale(0.100000,-0.100000)" class="hsm_000000" style="fill:#FFFFFF" stroke="none">
<path d="M3840 8816 c0 -8 32 -73 70 -144 39 -71 70 -132 70 -136 0 -4 -19 8
-41 28 -37 32 -93 55 -105 43 -5 -4 86 -115 167 -205 l48 -53 -21 -52 c-68
-169 -108 -382 -108 -576 l0 -137 -35 -54 c-19 -30 -35 -59 -35 -65 0 -5 15
-17 33 -25 50 -23 54 -57 22 -185 -14 -60 -35 -169 -45 -244 l-18 -136 -90
-176 c-94 -184 -130 -280 -156 -418 -15 -79 -22 -261 -10 -261 3 0 27 23 53
52 l48 52 6 -228 c4 -182 3 -236 -9 -268 -38 -110 -48 -215 -49 -537 l0 -313
-54 58 c-120 132 -159 190 -240 355 -44 91 -109 206 -145 257 -35 50 -83 122
-105 159 -21 37 -65 104 -95 148 -101 144 -99 138 -107 400 -7 235 -10 249
-63 428 -34 115 -30 131 91 415 52 123 93 225 91 225 -25 14 -104 34 -111 30
-21 -13 -199 -398 -218 -470 -23 -92 -24 -181 -3 -231 8 -20 26 -79 40 -131
21 -81 24 -115 24 -268 0 -248 19 -331 106 -465 246 -376 301 -464 334 -533
139 -291 136 -285 256 -425 64 -74 132 -159 152 -188 l35 -52 -6 -98 c-6 -96
-29 -224 -46 -251 -7 -10 -23 -12 -68 -6 -59 7 -61 7 -101 65 -23 32 -66 85
-97 118 -59 64 -63 72 -40 72 8 0 33 16 55 36 36 33 67 93 86 169 l6 25 -80 0
c-48 0 -94 -6 -115 -15 -35 -14 -87 -76 -87 -102 0 -20 -11 -16 -63 23 -36 26
-47 40 -42 52 48 119 -29 258 -166 300 -35 11 -82 22 -103 26 l-39 7 6 -53
c15 -119 45 -175 122 -225 27 -18 54 -35 60 -37 5 -2 7 -6 4 -10 -3 -3 -23 1
-45 10 -50 21 -138 13 -209 -20 -54 -25 -175 -129 -163 -141 14 -14 234 -85
264 -85 78 0 185 55 204 106 5 13 13 24 18 24 13 0 115 -64 119 -75 2 -6 -23
-10 -61 -10 -93 0 -136 -32 -193 -145 l-44 -85 82 -3 c131 -5 213 35 260 123
13 25 26 45 29 45 8 0 125 -141 138 -166 11 -20 9 -22 -21 -28 -60 -11 -152
-64 -212 -121 -76 -73 -112 -89 -201 -88 -64 0 -81 5 -175 49 -94 43 -111 48
-174 48 -85 0 -126 -13 -229 -73 l-79 -46 -123 -5 c-133 -7 -154 -15 -154 -60
0 -34 18 -41 148 -65 117 -22 170 -17 262 26 89 40 161 45 225 14 22 -10 76
-54 119 -98 44 -43 87 -82 95 -87 22 -11 116 7 164 31 21 11 63 36 93 55 158
101 322 125 573 83 276 -46 470 -4 601 131 30 31 66 75 80 98 14 23 28 42 31
42 16 1 49 -82 49 -124 0 -67 -19 -104 -85 -164 -65 -60 -137 -99 -240 -132
-106 -34 -303 -39 -454 -11 -249 46 -353 25 -581 -116 -88 -54 -119 -63 -219
-63 -114 0 -213 -16 -261 -40 -22 -11 -58 -45 -81 -75 -63 -84 -91 -97 -223
-105 -97 -6 -120 -11 -165 -35 -95 -52 -128 -117 -76 -151 23 -15 28 -14 92
14 59 27 83 31 173 35 134 5 190 28 275 116 33 33 75 66 93 72 38 13 202 3
202 -12 0 -9 -37 -110 -67 -181 -10 -24 -44 -59 -105 -108 -105 -84 -139 -100
-210 -100 -79 0 -168 -17 -189 -36 -24 -21 -24 -56 -1 -77 28 -25 244 -35 309
-13 64 21 188 107 269 186 60 59 86 96 187 261 80 131 164 188 309 211 65 10
96 9 200 -6 67 -10 124 -18 124 -19 5 -5 -139 -228 -170 -264 -25 -27 -73 -60
-149 -99 -87 -46 -129 -75 -187 -132 -58 -56 -96 -83 -166 -117 -95 -46 -150
-93 -205 -177 -30 -45 -38 -95 -17 -116 26 -26 60 -13 112 42 29 29 70 63 93
74 l41 21 7 -95 c14 -182 -3 -224 -133 -323 -44 -33 -93 -77 -109 -98 -70 -88
-103 -202 -68 -236 39 -40 83 -11 133 88 25 50 58 83 148 150 141 105 174 178
174 386 0 97 4 150 14 173 28 66 156 169 313 251 40 20 88 52 107 71 l36 35 0
-81 c0 -108 -15 -140 -108 -230 -104 -100 -124 -143 -130 -276 -4 -92 -1 -115
33 -250 21 -82 42 -155 48 -162 17 -22 65 -14 83 13 14 21 16 40 10 103 -3 42
-13 104 -21 137 -21 90 -19 190 5 241 12 23 51 69 90 103 95 85 125 148 144
303 23 180 44 240 107 307 48 50 102 71 186 71 39 0 75 -4 78 -10 11 -18 -24
-65 -98 -133 -88 -78 -98 -102 -101 -224 -1 -73 2 -86 18 -99 46 -33 82 -2
103 90 15 67 18 72 103 155 96 95 138 166 149 252 l6 51 68 28 67 29 1 -27 c0
-15 4 -65 8 -112 5 -47 6 -100 3 -119 -6 -41 -93 -137 -173 -191 -73 -51 -84
-75 -49 -110 27 -27 66 -25 129 7 64 31 173 131 206 187 30 53 38 84 75 306
33 198 58 307 72 316 13 8 45 -33 76 -96 25 -50 27 -65 26 -165 -1 -124 -12
-191 -55 -319 -37 -109 -68 -172 -125 -252 -58 -83 -95 -110 -269 -199 -179
-92 -222 -121 -302 -201 -72 -74 -104 -124 -134 -218 -19 -61 -21 -84 -17
-197 6 -144 1 -165 -72 -266 -27 -38 -40 -67 -40 -89 0 -38 22 -64 53 -64 30
0 126 105 168 183 l34 62 -2 130 c-3 155 9 206 67 288 36 50 114 117 137 117
15 0 57 -124 56 -165 0 -22 -17 -83 -38 -135 -20 -52 -39 -118 -42 -147 -7
-62 11 -135 39 -160 18 -16 22 -16 46 -2 23 13 28 24 38 94 17 113 19 118 54
100 89 -46 135 -127 149 -260 5 -47 14 -92 21 -100 18 -21 54 -19 76 6 16 18
19 37 19 128 -1 161 -15 194 -132 309 l-95 92 7 59 c5 45 2 79 -14 140 -12 44
-21 87 -21 94 0 9 36 27 92 47 50 18 120 47 155 65 l64 32 14 -34 c46 -110 44
-125 -34 -221 -59 -73 -66 -109 -26 -140 14 -12 34 -18 45 -15 30 8 160 150
181 199 17 38 19 59 14 171 -6 115 -4 136 17 212 l24 84 55 -74 c76 -103 85
-119 109 -188 22 -67 27 -172 9 -234 -5 -21 -38 -83 -71 -137 -59 -96 -61
-103 -65 -178 -4 -64 0 -90 21 -151 28 -81 32 -133 14 -192 -16 -54 0 -89 41
-89 22 0 37 9 55 33 62 81 71 160 31 272 -35 98 -33 134 10 187 19 24 49 66
67 95 18 29 35 53 38 53 3 0 18 -24 34 -53 31 -56 68 -106 128 -176 56 -65 57
-92 12 -219 -64 -178 -54 -304 39 -456 24 -38 54 -78 69 -89 32 -24 65 -16 78
19 10 26 0 62 -56 194 -41 96 -38 167 11 295 63 166 59 221 -26 351 -85 130
-88 137 -119 317 -33 192 -64 261 -207 469 -107 157 -140 222 -153 305 -12 68
2 234 26 314 l16 53 29 -75 c16 -41 45 -125 65 -187 64 -203 159 -360 314
-519 79 -81 174 -158 215 -173 18 -7 33 -7 46 0 33 18 23 64 -35 163 -65 109
-94 205 -103 337 -6 108 7 213 38 295 25 67 33 64 77 -32 25 -54 34 -95 46
-199 18 -150 34 -202 116 -374 82 -173 94 -224 86 -380 -3 -69 -10 -172 -16
-230 -7 -72 -6 -123 1 -163 5 -32 9 -107 7 -167 -3 -95 -1 -110 16 -129 45
-49 88 -4 113 115 15 71 15 92 4 176 -14 100 -10 138 15 138 26 0 112 -95 125
-138 22 -76 67 -102 104 -62 14 16 17 31 13 78 -8 86 -44 146 -138 235 l-82
77 8 67 c5 38 8 95 6 129 l-2 61 77 -27 c148 -51 223 -101 223 -149 0 -14 -5
-61 -12 -103 -13 -87 -8 -113 43 -230 33 -76 36 -122 12 -199 -24 -76 -24
-242 0 -287 14 -25 24 -32 47 -32 44 0 57 30 63 140 3 55 14 122 26 158 29 88
27 171 -5 247 -51 120 -52 127 -42 190 5 33 11 61 13 63 5 5 39 -14 101 -54
104 -69 144 -162 144 -336 0 -130 8 -152 91 -257 74 -92 100 -109 135 -86 36
23 32 69 -13 141 -73 119 -73 119 -73 244 0 186 -36 285 -139 383 -31 29 -90
73 -131 97 -41 24 -111 72 -155 105 -44 34 -127 89 -184 121 -57 32 -125 80
-150 106 -103 101 -176 303 -197 542 l-7 78 79 -63 c164 -133 183 -166 199
-336 8 -82 36 -147 77 -176 26 -19 28 -19 53 -3 l26 17 -7 108 -7 108 76 -21
76 -21 22 -70 c11 -38 28 -83 36 -98 23 -46 84 -107 126 -129 37 -18 51 -20
177 -13 l137 7 36 -31 c44 -39 64 -91 77 -200 19 -165 79 -231 241 -272 113
-28 134 -43 210 -152 44 -64 72 -80 107 -64 38 17 38 50 -2 133 -62 132 -116
178 -254 220 -57 18 -96 36 -119 58 -33 30 -36 37 -45 126 -12 110 -37 183
-82 243 -66 86 -144 113 -288 99 -144 -13 -177 7 -185 111 l-5 64 178 8 c311
15 316 14 417 -33 167 -78 186 -106 187 -267 0 -92 3 -104 29 -150 42 -74 106
-135 141 -135 64 0 68 51 11 147 -39 66 -41 73 -41 150 0 45 4 84 8 87 15 9
96 -35 143 -79 105 -98 180 -21 91 92 -58 73 -96 98 -221 148 -36 14 -97 49
-135 79 -81 62 -186 116 -272 142 -47 15 -98 18 -254 19 l-195 1 -170 53 c-93
29 -203 68 -242 86 -159 73 -321 214 -370 323 -31 67 -32 143 -3 209 l20 46
68 -113 c82 -138 179 -234 298 -296 163 -86 294 -113 448 -95 175 20 283 11
366 -33 25 -13 83 -43 130 -67 l85 -44 133 2 c158 3 167 0 242 -87 58 -67 90
-82 120 -55 28 25 25 58 -11 126 -39 72 -113 144 -165 158 -22 6 -95 11 -165
11 -121 0 -127 1 -171 29 -40 26 -138 132 -138 150 0 15 46 50 90 70 64 29
102 26 194 -16 79 -37 83 -38 196 -37 137 1 279 25 297 51 17 22 16 27 -6 54
-18 23 -26 24 -183 29 l-165 5 -63 39 c-103 64 -138 77 -214 83 -56 4 -90 1
-156 -17 -116 -32 -199 -36 -278 -15 -35 10 -66 23 -68 30 -7 18 80 161 97
157 137 -33 187 -18 331 97 66 53 65 56 -31 92 -74 27 -167 28 -221 1 l-41
-20 7 22 c30 94 27 91 85 97 65 7 103 26 145 71 37 39 99 147 90 156 -4 3 -44
6 -89 6 -84 0 -112 -8 -154 -47 l-23 -20 0 40 c0 31 7 47 30 71 73 77 78 163
13 258 -22 32 -49 67 -60 76 -19 18 -20 16 -56 -72 -42 -102 -46 -147 -17
-220 32 -81 27 -93 -19 -50 -40 38 -74 50 -145 50 -71 0 -73 -8 -32 -94 43
-90 92 -130 158 -131 l40 0 -6 -49 c-6 -56 -14 -68 -27 -43 -18 32 -65 47
-145 47 l-76 0 7 -27 c23 -94 69 -157 138 -191 l37 -18 -80 -122 c-47 -73 -89
-126 -102 -131 -13 -5 -61 -14 -108 -20 -137 -20 -234 12 -331 109 -62 61 -83
110 -94 218 l-7 64 63 -47 c35 -25 92 -60 127 -76 63 -31 166 -58 177 -47 4 3
-14 41 -39 85 -127 220 -159 507 -86 787 17 66 32 121 34 123 1 2 6 -58 10
-132 3 -74 9 -149 13 -166 6 -30 7 -30 25 27 48 154 78 267 94 352 l17 94 98
-98 c55 -54 99 -96 99 -93 0 4 -21 53 -46 110 -43 98 -84 209 -84 230 0 21 32
5 131 -62 148 -102 278 -207 402 -328 59 -58 107 -100 107 -94 0 13 -75 116
-139 192 -72 85 -236 226 -351 303 -58 38 -105 72 -104 76 2 39 19 82 31 82 8
0 89 -38 181 -84 160 -82 346 -192 500 -297 39 -28 72 -46 72 -41 0 14 -126
130 -211 194 -121 91 -243 164 -395 238 l-142 68 5 49 c3 26 7 50 10 53 12 13
598 -207 735 -276 116 -59 28 16 -118 100 -117 68 -309 151 -469 204 -77 25
-143 50 -146 54 -3 5 -6 28 -8 53 l-2 45 41 0 c46 0 291 -27 360 -40 25 -5 47
-7 48 -5 8 8 -196 66 -300 86 -62 11 -122 22 -134 24 -20 4 -31 44 -72 255 -3
20 13 8 82 -60 48 -47 85 -78 82 -70 -3 8 -18 71 -35 140 -16 69 -59 217 -95
329 -36 111 -66 204 -66 206 0 2 16 7 35 11 19 3 35 8 35 10 0 2 -17 30 -39
62 -48 70 -86 147 -95 188 -5 24 2 52 28 115 46 112 91 266 117 402 18 92 21
136 17 247 -3 79 -12 162 -22 201 l-18 66 79 114 c44 63 90 131 102 152 22 35
22 37 4 37 -11 0 -47 -25 -81 -56 -34 -31 -62 -54 -62 -52 0 4 50 134 90 236
18 45 30 85 27 89 -18 18 -111 -105 -164 -218 -32 -67 -44 -75 -36 -25 6 40
-4 89 -16 81 -12 -7 -53 -116 -82 -219 l-23 -78 -113 -54 c-190 -89 -366 -198
-592 -367 -68 -50 -110 -76 -120 -72 -42 17 -176 45 -264 56 -108 13 -444 7
-512 -9 -110 -27 -99 -30 -189 62 -232 238 -449 390 -694 487 l-95 37 -22 59
c-28 78 -62 145 -92 179 l-24 29 5 -84 4 -85 -28 52 c-63 115 -200 265 -200
218z m560 -653 c263 -139 549 -416 707 -685 19 -32 37 -58 40 -58 15 0 -6 150
-30 209 l-26 63 25 -6 c68 -18 136 -52 209 -105 44 -33 81 -55 83 -50 6 15
-51 111 -97 161 l-44 49 64 -6 c160 -15 256 -57 369 -162 102 -95 162 -189
298 -473 10 -21 11 -9 7 69 -13 212 -105 373 -290 508 -66 48 -66 49 37 29
229 -45 473 -175 683 -366 81 -73 338 -341 332 -346 -1 -1 -31 3 -67 8 -210
31 -365 -32 -405 -164 -28 -97 -13 -178 57 -307 50 -91 103 -166 95 -133 -8
36 7 26 72 -45 59 -64 151 -223 151 -262 0 -14 -15 -16 -119 -16 -108 0 -144
-6 -129 -20 4 -4 241 -55 256 -55 6 0 -3 -99 -11 -106 -3 -3 -29 2 -58 10 -71
21 -184 32 -193 18 -4 -6 15 -17 46 -28 72 -23 178 -71 178 -80 0 -25 -36 -44
-82 -44 -30 0 -47 -4 -43 -10 3 -5 14 -10 24 -10 10 0 24 -6 30 -14 9 -11 4
-17 -25 -31 -51 -24 -162 -17 -224 15 -99 51 -140 103 -140 180 0 48 16 88 72
187 36 63 47 75 85 89 58 22 93 68 93 121 0 62 -51 96 -174 115 -89 14 -211 0
-284 -32 -51 -23 -112 -76 -112 -98 0 -29 45 -75 96 -98 30 -13 63 -38 79 -58
31 -41 75 -158 75 -201 0 -45 -34 -109 -73 -139 -73 -56 -240 -105 -363 -106
-58 0 -161 27 -148 40 5 4 36 20 69 35 l60 26 -78 -5 c-91 -5 -164 -35 -293
-121 -271 -181 -416 -413 -418 -672 0 -51 -2 -93 -3 -93 -6 0 -96 145 -122
197 -67 135 -95 242 -108 420 l-7 98 -24 -75 c-20 -62 -25 -96 -25 -190 0 -63
5 -137 12 -164 6 -27 10 -50 8 -52 -6 -6 -76 94 -111 158 -19 35 -49 108 -67
163 -31 94 -33 108 -33 245 0 132 3 152 28 225 15 44 38 97 52 118 14 22 23
41 21 43 -3 3 -36 -26 -74 -63 -72 -70 -148 -177 -185 -261 -28 -63 -33 -42
-14 65 33 192 96 318 212 421 105 94 281 161 428 163 71 1 71 1 38 15 -62 27
-173 38 -259 26 -170 -24 -310 -94 -455 -230 -45 -42 -48 -43 -48 -21 1 38 36
188 65 275 33 100 113 246 172 313 76 87 28 57 -81 -51 -175 -174 -260 -331
-376 -693 -21 -66 -48 -140 -59 -165 l-21 -45 4 190 c3 172 7 201 34 308 58
225 178 427 340 577 80 75 274 210 300 210 9 0 13 3 10 6 -9 8 -122 -23 -169
-46 -22 -12 -43 -20 -45 -17 -9 8 150 132 225 174 89 51 162 80 246 97 55 11
60 15 57 37 -9 92 -81 233 -137 269 l-38 25 33 5 32 5 -45 33 c-25 18 -65 41
-89 52 l-43 20 63 -5 c34 -2 76 -12 93 -21 17 -8 33 -13 36 -10 10 10 -120
136 -187 181 -36 25 -97 56 -135 69 l-70 24 45 11 c25 7 50 13 55 15 15 4 -84
65 -124 76 -44 12 -55 3 -80 -65 -18 -48 -54 -245 -46 -253 2 -2 10 9 18 25
19 36 94 107 82 78 -55 -138 -76 -249 -60 -312 6 -27 7 -27 31 21 27 53 54 95
54 83 0 -4 -9 -35 -20 -68 -23 -66 -29 -233 -12 -321 l9 -47 -46 -33 c-25 -18
-69 -52 -98 -75 l-52 -42 13 37 c26 72 27 115 6 237 -30 172 -37 395 -16 509
35 181 83 296 136 323 33 16 59 9 160 -44z m2383 -70 c17 -19 57 -115 57 -137
0 -7 -46 -49 -102 -93 -57 -45 -119 -97 -138 -118 l-35 -36 45 25 c44 25 186
63 196 53 3 -3 -7 -12 -23 -20 -39 -21 -108 -77 -133 -110 l-22 -27 24 9 c29
11 125 25 117 17 -3 -3 -27 -17 -54 -31 -26 -15 -85 -53 -131 -86 -81 -59 -82
-61 -72 -90 6 -17 7 -33 4 -36 -9 -10 -95 76 -115 115 l-17 33 -14 -25 c-7
-14 -18 -26 -23 -26 -10 0 -77 39 -77 45 0 2 14 31 32 65 39 76 142 184 228
239 36 22 60 41 54 41 -6 0 -49 -15 -97 -34 -102 -40 -203 -105 -272 -175 -43
-45 -75 -64 -75 -45 0 18 122 152 189 208 118 98 289 204 391 242 46 17 44 17
63 -3z m-81 -1281 l51 -49 -24 -43 c-21 -38 -71 -86 -150 -141 -23 -16 -23
-16 11 -13 l35 4 -30 -15 c-82 -39 -195 17 -195 96 0 27 3 29 41 29 81 0 161
60 181 136 7 24 16 44 21 44 5 0 31 -22 59 -48z m-2677 -1221 c10 -47 28 -116
41 -154 24 -70 107 -231 124 -242 6 -4 10 10 10 32 1 41 24 170 32 178 3 3 11
-14 18 -37 28 -97 109 -233 206 -348 102 -121 269 -248 399 -303 74 -31 172
-57 215 -57 27 0 31 3 24 18 -4 9 -19 49 -32 87 -50 138 -28 310 58 456 63
106 65 105 62 -31 -3 -95 1 -136 17 -202 21 -84 104 -268 121 -268 5 0 7 6 4
14 -12 30 37 216 56 216 4 0 10 -17 13 -37 8 -59 44 -145 89 -214 l40 -63 18
56 c24 77 59 134 116 188 41 39 46 42 40 20 -4 -14 -15 -86 -26 -160 -27 -194
-67 -325 -141 -473 l-29 -58 77 59 c43 33 95 77 117 97 l38 38 -7 -63 c-19
-163 -94 -395 -180 -555 -70 -131 -135 -231 -135 -209 0 39 -40 179 -69 239
-15 33 -68 116 -117 185 -49 69 -108 163 -131 210 -35 68 -43 79 -43 55 1 -85
24 -182 86 -365 8 -22 -79 75 -134 150 -26 35 -86 141 -135 235 l-87 170 6
-60 c4 -33 13 -84 20 -115 l12 -55 -53 59 c-30 32 -73 90 -96 128 -44 72 -108
228 -109 263 0 11 -4 26 -9 34 -6 9 -11 -16 -16 -70 -9 -110 7 -219 50 -334
19 -49 33 -91 31 -92 -9 -9 -193 197 -237 264 -116 177 -176 338 -227 603 l-8
45 -9 -79 c-4 -44 -5 -126 -2 -183 2 -57 3 -103 2 -103 -10 0 -101 159 -127
222 -58 136 -79 231 -85 379 -6 149 9 252 51 337 l21 44 7 -33 c3 -19 14 -72
23 -118z m2224 47 c80 -30 122 -73 128 -130 10 -90 -43 -190 -126 -236 l-41
-24 25 38 c32 48 34 77 2 42 -58 -62 -216 -117 -297 -103 -101 17 -110 23 -64
44 48 21 19 21 -85 0 -56 -11 -107 -19 -113 -17 -6 2 14 15 45 27 31 13 57 27
57 31 0 4 -26 10 -58 12 -80 8 -195 58 -270 118 -34 28 -62 55 -62 60 0 6 15
10 33 10 77 0 312 50 441 94 75 26 155 51 178 56 57 12 140 3 207 -22z m-2314
-1234 c76 -159 79 -166 64 -192 -21 -39 -87 -71 -159 -79 l-63 -6 7 39 c9 52
32 207 46 317 7 48 15 87 19 87 3 -1 42 -75 86 -166z"></path>
<path d="M5381 7321 c20 -17 74 -81 120 -143 l84 -112 3 49 c5 73 -5 111 -39
150 -30 33 -96 65 -169 80 l-35 7 36 -31z"></path>
<path d="M6315 7307 c-44 -42 -49 -57 -46 -117 2 -27 41 -120 50 -120 14 0 41
120 41 179 0 34 5 71 10 82 18 33 -6 22 -55 -24z"></path>
<path d="M5197 7019 c-79 -11 -178 -43 -262 -84 -161 -78 -379 -235 -466 -337
-66 -77 -67 -82 -7 -50 68 38 185 78 268 91 144 24 273 9 445 -49 49 -17 93
-30 98 -30 6 0 -16 17 -49 38 -32 21 -87 59 -122 84 -70 53 -104 66 -194 77
l-63 8 85 40 c89 43 202 73 207 56 12 -36 68 -105 105 -130 55 -38 99 -53 157
-53 25 0 64 -5 86 -11 42 -12 114 -75 99 -88 -5 -4 -37 -13 -71 -19 -34 -7
-90 -23 -123 -35 l-61 -23 86 -12 c98 -13 160 -38 221 -87 l42 -35 5 33 c23
134 30 228 19 283 -37 180 -167 309 -339 334 -77 11 -86 11 -166 -1z"></path>
<path d="M5290 6204 c-95 -15 -159 -30 -253 -61 -59 -20 -106 -38 -103 -40 3
-3 38 2 78 11 84 18 231 36 301 36 l48 0 -16 -30 c-8 -16 -15 -38 -15 -50 0
-11 -6 -22 -12 -24 -283 -78 -595 -226 -728 -346 l-45 -41 110 55 c334 165
658 270 982 321 158 25 160 25 137 39 -27 15 -253 14 -337 -3 -37 -7 -70 -12
-72 -9 -8 8 17 93 36 120 l20 28 -53 -1 c-29 -1 -64 -3 -78 -5z"></path>
<path d="M5340 5895 c0 -44 0 -45 -52 -67 -169 -73 -315 -167 -439 -285 -90
-86 -112 -120 -42 -66 58 45 240 157 356 218 160 85 466 194 594 212 24 3 40
9 38 14 -18 28 -196 12 -337 -29 l-66 -20 -7 26 c-6 25 -21 42 -37 42 -5 0 -8
-20 -8 -45z"></path>
<path d="M2543 8388 c-6 -7 -23 -65 -39 -128 -23 -91 -29 -137 -29 -220 0 -99
2 -109 34 -175 53 -109 167 -205 274 -231 25 -6 29 -2 46 37 40 90 64 208 59
291 -4 64 -11 91 -42 154 -70 141 -267 318 -303 272z"></path>
<path d="M3304 7987 c-108 -44 -172 -87 -239 -159 -117 -126 -155 -268 -124
-458 5 -35 12 -66 15 -69 8 -9 170 42 228 71 123 62 217 194 238 335 14 94 -1
307 -22 310 -8 2 -52 -12 -96 -30z"></path>
<path d="M2236 7554 c-3 -55 -9 -134 -12 -176 -17 -210 86 -395 268 -482 40
-19 89 -37 109 -41 l36 -7 30 69 c46 105 56 153 51 251 -6 124 -50 216 -151
316 -79 79 -208 153 -283 163 l-41 5 -7 -98z"></path>
<path d="M3314 7065 c-268 -59 -414 -220 -414 -455 0 -45 5 -101 11 -126 l12
-45 51 6 c78 10 193 52 253 91 129 86 201 222 218 409 3 39 8 85 11 103 l5 32
-43 -1 c-24 -1 -70 -7 -104 -14z"></path>
<path d="M2138 6550 c-88 -11 -268 -71 -279 -92 -8 -15 0 -29 44 -76 30 -31
73 -84 97 -117 78 -107 157 -178 250 -223 125 -61 227 -73 403 -45 l37 6 0 61
c0 87 -24 187 -61 256 -87 163 -288 257 -491 230z"></path>
<path d="M3254 6284 c-161 -97 -247 -246 -231 -403 8 -69 28 -123 80 -212 l39
-65 36 31 c88 73 145 139 175 203 43 91 49 223 18 355 -12 49 -21 97 -21 108
0 29 -28 24 -96 -17z"></path>
<path d="M2300 5652 c-126 -35 -292 -115 -298 -143 -2 -14 164 -172 271 -257
62 -49 170 -99 255 -118 103 -23 253 -15 400 21 132 32 127 17 51 171 -76 155
-175 252 -319 314 -76 33 -263 39 -360 12z"></path>
<path d="M2275 3601 c-49 -22 -105 -83 -105 -114 0 -52 59 -63 108 -22 17 14
49 32 73 40 55 20 69 32 69 61 0 51 -72 68 -145 35z"></path>
</g>
</svg></svg></g></g><defs><clipPath id="SvgjsClipPath1061"><rect width="1000" height="1000" x="0" y="0" rx="250" ry="250"></rect></clipPath></defs></svg></g></svg>